<svg width="2360" height="2360" viewBox="0 0 2360 2360" fill="none" xmlns="http://www.w3.org/2000/svg">
<g clip-path="url(#clip0_109_1008)">
<rect width="2360" height="2360" fill="black"/>
<path d="M3090.75 -81.605L3081.91 -81.686L3073.08 -81.764L3064.25 -81.8357L3055.42 -81.8982L3046.61 -81.9483L3037.81 -81.9829L3029.03 -81.999L3020.26 -81.9936L3011.51 -81.9636L3002.79 -81.906L2994.1 -81.8179L2985.43 -81.6962L2976.79 -81.5382L2968.19 -81.3408L2959.62 -81.1013L2951.09 -80.8168L2942.6 -80.4846L2934.15 -80.1019L2925.75 -79.6661L2917.39 -79.1744L2909.09 -78.6244L2900.83 -78.0135L2892.63 -77.3391L2884.49 -76.599L2876.4 -75.7907L2868.37 -74.912L2860.41 -73.9605L2852.5 -72.9341L2844.66 -71.8308L2836.89 -70.6484L2829.19 -69.385L2821.56 -68.0388L2814 -66.6079L2806.51 -65.0905L2799.1 -63.4851L2791.76 -61.79L2784.5 -60.0037L2777.31 -58.1247L2770.21 -56.1519L2763.19 -54.0838L2756.25 -51.9195L2749.39 -49.6576L2742.61 -47.2973L2735.92 -44.8377L2729.31 -42.278L2722.79 -39.6173L2716.36 -36.8551L2710.01 -33.9909L2703.74 -31.0242L2697.57 -27.9547L2691.48 -24.782L2685.48 -21.506L2679.56 -18.1266L2673.74 -14.6438L2668 -11.0578L2662.34 -7.36877L2656.78 -3.57695L2651.3 0.317291L2645.91 4.31341L2640.6 8.41087L2635.38 12.6091L2630.24 16.9071L2625.19 21.3043L2620.21 25.7997L2615.33 30.3921L2610.52 35.0807L2605.79 39.8641L2601.14 44.741L2596.57 49.7102L2592.08 54.7701L2587.66 59.9193L2583.32 65.1561L2579.04 70.4789L2574.84 75.8859L2570.71 81.3752L2566.65 86.9449L2562.65 92.5931L2558.72 98.3178L2554.85 104.117L2551.04 109.988L2547.3 115.928L2543.6 121.937L2539.97 128.01L2536.38 134.146L2532.85 140.343L2529.37 146.597L2525.93 152.906L2522.53 159.267L2519.18 165.679L2515.87 172.137L2512.6 178.639L2509.36 185.183L2506.15 191.765L2502.97 198.383L2499.82 205.033L2496.7 211.714L2493.6 218.421L2490.52 225.151L2487.45 231.903L2484.4 238.672L2481.37 245.455L2478.34 252.251L2475.32 259.054L2472.3 265.863L2469.29 272.674L2466.28 279.485L2463.26 286.291L2460.24 293.09L2457.2 299.879L2454.16 306.655L2451.1 313.415L2448.03 320.155L2444.94 326.872L2441.82 333.565L2438.69 340.229L2435.52 346.861L2432.33 353.46L2429.1 360.02L2425.84 366.541L2422.55 373.019L2419.22 379.452L2415.84 385.835L2412.42 392.168L2408.96 398.446L2405.45 404.668L2401.89 410.831L2398.27 416.933L2394.61 422.97L2390.88 428.941L2387.1 434.843L2383.26 440.673L2379.35 446.431L2375.39 452.113L2371.35 457.717L2367.25 463.242L2363.08 468.686L2358.84 474.046L2354.53 479.321L2350.14 484.508L2345.68 489.608L2341.15 494.617L2336.53 499.535L2331.84 504.359L2327.07 509.09L2322.22 513.725L2317.28 518.263L2312.26 522.703L2307.16 527.045L2301.98 531.287L2296.71 535.429L2291.35 539.47L2285.91 543.409L2280.38 547.246L2274.77 550.98L2269.07 554.611L2263.28 558.139L2257.4 561.564L2251.44 564.886L2245.39 568.104L2239.25 571.219L2233.03 574.231L2226.72 577.14L2220.32 579.947L2213.83 582.652L2207.26 585.256L2200.61 587.759L2193.87 590.163L2187.05 592.468L2180.14 594.675L2173.16 596.786L2166.09 598.8L2158.94 600.72L2151.71 602.547L2144.41 604.282L2137.03 605.927L2129.57 607.483L2122.05 608.951L2114.44 610.334L2106.77 611.634L2099.03 612.852L2091.22 613.99L2083.35 615.05L2075.41 616.034L2067.41 616.944L2059.34 617.783L2051.22 618.553L2043.05 619.256L2034.82 619.894L2026.53 620.471L2018.2 620.988L2009.82 621.448L2001.39 621.854L1992.92 622.208L1984.41 622.513L1975.85 622.772L1967.27 622.987L1958.64 623.162L1949.99 623.3L1941.3 623.402L1932.59 623.473L1923.86 623.514L1915.1 623.53L1906.32 623.523L1897.53 623.496L1888.72 623.453L1879.9 623.395L1871.08 623.327L1862.24 623.252L1853.4 623.172L1844.56 623.09L1835.73 623.01L1826.89 622.936L1818.06 622.869L1809.25 622.813L1800.44 622.771L1791.65 622.746L1782.87 622.742L1774.12 622.761L1765.39 622.806L1756.68 622.88L1748 622.987L1739.35 623.128L1730.73 623.308L1722.14 623.529L1713.6 623.793L1705.09 624.104L1696.62 624.464L1688.2 624.876L1679.82 625.343L1671.5 625.867L1663.22 626.451L1655 627.097L1646.83 627.808L1638.71 628.586L1630.66 629.434L1622.66 630.353L1614.73 631.346L1606.87 632.415L1599.07 633.563L1591.33 634.79L1583.67 636.1L1576.08 637.493L1568.56 638.973L1561.11 640.539L1553.74 642.195L1546.44 643.941L1539.23 645.779L1532.09 647.71L1525.03 649.736L1518.05 651.858L1511.16 654.077L1504.34 656.394L1497.62 658.81L1490.97 661.325L1484.41 663.942L1477.94 666.659L1471.55 669.478L1465.25 672.4L1459.04 675.424L1452.91 678.552L1446.87 681.782L1440.92 685.116L1435.05 688.553L1429.27 692.094L1423.58 695.738L1417.98 699.485L1412.46 703.334L1407.03 707.285L1401.69 711.338L1396.43 715.492L1391.25 719.747L1386.16 724.1L1381.15 728.553L1376.23 733.103L1371.39 737.749L1366.62 742.491L1361.94 747.327L1357.34 752.256L1352.81 757.276L1348.36 762.386L1343.98 767.585L1339.68 772.87L1335.45 778.24L1331.28 783.693L1327.19 789.228L1323.17 794.842L1319.21 800.533L1315.31 806.3L1311.48 812.139L1307.7 818.05L1303.98 824.029L1300.32 830.074L1296.72 836.183L1293.16 842.353L1289.66 848.582L1286.2 854.867L1282.78 861.206L1279.42 867.596L1276.09 874.034L1272.8 880.517L1269.54 887.043L1266.32 893.608L1263.13 900.211L1259.97 906.847L1256.83 913.515L1253.72 920.211L1250.63 926.931L1247.56 933.674L1244.51 940.436L1241.46 947.213L1238.43 954.004L1235.41 960.804L1232.39 967.611L1229.38 974.421L1226.37 981.232L1223.35 988.041L1220.33 994.844L1217.3 1001.64L1214.26 1008.42L1211.21 1015.19L1208.15 1021.94L1205.06 1028.66L1201.96 1035.37L1198.83 1042.04L1195.68 1048.69L1192.5 1055.3L1189.29 1061.88L1186.05 1068.42L1182.77 1074.92L1179.45 1081.37L1176.09 1087.78L1172.7 1094.13L1169.25 1100.43L1165.76 1106.68L1162.22 1112.87L1158.63 1119L1154.99 1125.07L1151.29 1131.07L1147.53 1137L1143.72 1142.86L1139.84 1148.65L1135.9 1154.37L1131.9 1160L1127.83 1165.56L1123.69 1171.04L1119.48 1176.44L1115.2 1181.75L1110.85 1186.98L1106.42 1192.12L1101.92 1197.17L1097.34 1202.13L1092.68 1206.99L1087.94 1211.76L1083.12 1216.44L1078.22 1221.02L1073.24 1225.5L1068.18 1229.89L1063.03 1234.18L1057.8 1238.36L1052.48 1242.45L1047.08 1246.43L1041.59 1250.31L1036.01 1254.09L1030.35 1257.77L1024.6 1261.34L1018.76 1264.81L1012.84 1268.18L1006.83 1271.44L1000.73 1274.6L994.539 1277.66L988.266 1280.61L981.906 1283.47L975.459 1286.22L968.927 1288.86L962.31 1291.41L955.608 1293.86L948.822 1296.21L941.954 1298.46L935.002 1300.61L927.97 1302.67L920.857 1304.63L913.665 1306.5L906.395 1308.27L899.048 1309.96L891.625 1311.55L884.128 1313.06L876.558 1314.48L868.917 1315.81L861.206 1317.07L853.426 1318.24L845.58 1319.33L837.669 1320.35L829.695 1321.29L821.66 1322.16L813.565 1322.96L805.414 1323.7L797.206 1324.36L788.946 1324.97L780.634 1325.51L772.273 1325.99L763.865 1326.42L755.413 1326.8L746.918 1327.13L738.383 1327.4L729.81 1327.64L721.202 1327.83L712.561 1327.98L703.89 1328.1L695.19 1328.19L686.465 1328.24L677.717 1328.27L668.949 1328.27L660.162 1328.25L651.361 1328.21L642.547 1328.16L633.722 1328.1L624.89 1328.03L616.053 1327.95L607.213 1327.87L598.374 1327.79L589.538 1327.71L580.708 1327.64L571.885 1327.58L563.074 1327.53L554.275 1327.5L545.493 1327.48L536.73 1327.49L527.987 1327.52L519.268 1327.58L510.575 1327.68L501.91 1327.8L493.277 1327.97L484.678 1328.17L476.114 1328.41L467.589 1328.7L459.104 1329.04L450.662 1329.43L442.265 1329.87L433.916 1330.37L425.616 1330.93L417.368 1331.55L409.174 1332.23L401.036 1332.98L392.955 1333.79L384.935 1334.68L376.976 1335.64L369.081 1336.68L361.251 1337.79L353.487 1338.98L345.793 1340.25L338.169 1341.61L330.616 1343.05L323.137 1344.58L315.733 1346.2L308.404 1347.9L301.153 1349.7L293.98 1351.59L286.886 1353.57L279.874 1355.65L272.942 1357.83L266.093 1360.1L259.328 1362.48L252.647 1364.95L246.05 1367.52L239.538 1370.19L233.113 1372.97L226.773 1375.84L220.521 1378.82L214.356 1381.91L208.277 1385.09L202.286 1388.38L196.383 1391.77L190.566 1395.27L184.837 1398.86L179.195 1402.57L173.64 1406.37L168.172 1410.28L162.789 1414.29L157.492 1418.4L152.28 1422.61L147.153 1426.92L142.109 1431.32L137.148 1435.83L132.269 1440.44L127.471 1445.14L122.753 1449.93L118.115 1454.82L113.553 1459.8L109.069 1464.87L104.66 1470.03L100.324 1475.28L96.0616 1480.61L91.87 1486.03L87.7474 1491.53L83.6927 1497.11L79.7042 1502.76L75.78 1508.5L71.9184 1514.3L68.1176 1520.18L64.3755 1526.13L60.6902 1532.15L57.0597 1538.23L53.4818 1544.37L49.9549 1550.58L46.4763 1556.84L43.0438 1563.15L39.6557 1569.52L36.3091 1575.94L33.0017 1582.4L29.7318 1588.91L26.4964 1595.46L23.293 1602.05L20.1199 1608.67L16.9738 1615.32L13.8524 1622.01L10.7536 1628.72L7.67445 1635.45L4.61222 1642.2L1.56482 1648.97L-1.47034 1655.76L-4.49653 1662.55L-7.51568 1669.36L-10.5304 1676.17L-13.5441 1682.98L-16.5585 1689.79L-19.5764 1696.6L-22.601 1703.39L-25.6344 1710.18L-28.679 1716.96L-31.7381 1723.71L-34.8137 1730.45L-37.9083 1737.16L-41.0252 1743.85L-44.1661 1750.51L-47.3339 1757.14L-50.531 1763.74L-53.7598 1770.29L-57.0229 1776.81L-60.3226 1783.28L-63.6612 1789.71L-67.041 1796.09L-70.4647 1802.41L-73.9338 1808.68L-77.4511 1814.9L-81.0189 1821.05L-84.6385 1827.15L-88.3128 1833.18L-92.0438 1839.14L-95.8326 1845.03L-99.6821 1850.86L-103.594 1856.6L-107.569 1862.28L-111.611 1867.87L-115.72 1873.39L-119.898 1878.82L-124.146 1884.17L-128.468 1889.43L-132.862 1894.61L-137.331 1899.7L-141.877 1904.7L-146.501 1909.6L-151.203 1914.42L-155.985 1919.14L-160.848 1923.76L-165.792 1928.29L-170.82 1932.72L-175.931 1937.05L-181.126 1941.28L-186.406 1945.4L-191.771 1949.43L-197.223 1953.36L-202.761 1957.18L-208.386 1960.91L-214.097 1964.53L-219.897 1968.04L-225.783 1971.45L-231.757 1974.76L-237.818 1977.97L-243.966 1981.07L-250.201 1984.07L-256.524 1986.97L-262.932 1989.76L-269.427 1992.45L-276.007 1995.05L-282.671 1997.54L-289.42 1999.93L-296.253 2002.22L-303.168 2004.42L-310.164 2006.52L-317.242 2008.52L-324.399 2010.43L-331.635 2012.24L-338.949 2013.97L-346.338 2015.6L-353.803 2017.15L-361.341 2018.6L-368.951 2019.98L-376.632 2021.27L-384.382 2022.48L-392.199 2023.6L-400.081 2024.65L-408.028 2025.63L-416.036 2026.53L-424.105 2027.36L-432.232 2028.12L-440.415 2028.82L-448.652 2029.45L-456.942 2030.02L-465.282 2030.53L-473.669 2030.98L-482.102 2031.38L-490.579 2031.73L-499.097 2032.03L-507.653 2032.28L-516.246 2032.49L-524.872 2032.66L-533.531 2032.8L-542.218 2032.89L-550.932 2032.96L-559.671 2033L-568.43 2033.01L-577.209 2033L-586.005 2032.97L-594.813 2032.93L-603.634 2032.87L-612.463 2032.8L-621.298 2032.72L-630.137 2032.64" stroke="white" stroke-width="2"/>
<path d="M3097.91 787.781L3087.72 788.658L3077.53 789.539L3067.35 790.425L3057.17 791.32L3047.01 792.227L3036.86 793.149L3026.72 794.088L3016.6 795.049L3006.5 796.033L2996.42 797.044L2986.37 798.084L2976.34 799.156L2966.35 800.263L2956.38 801.408L2946.46 802.594L2936.56 803.823L2926.71 805.098L2916.9 806.422L2907.13 807.796L2897.4 809.225L2887.73 810.709L2878.1 812.253L2868.52 813.857L2859 815.524L2849.53 817.258L2840.13 819.059L2830.78 820.93L2821.49 822.873L2812.26 824.89L2803.1 826.983L2794 829.154L2784.97 831.405L2776.01 833.738L2767.12 836.153L2758.3 838.654L2749.56 841.241L2740.89 843.915L2732.29 846.679L2723.77 849.533L2715.33 852.479L2706.97 855.517L2698.68 858.649L2690.48 861.876L2682.36 865.199L2674.32 868.618L2666.36 872.134L2658.48 875.748L2650.69 879.46L2642.98 883.27L2635.35 887.18L2627.81 891.189L2620.35 895.297L2612.97 899.505L2605.68 903.812L2598.47 908.219L2591.35 912.725L2584.31 917.33L2577.36 922.033L2570.48 926.835L2563.69 931.734L2556.98 936.73L2550.36 941.822L2543.81 947.009L2537.34 952.291L2530.96 957.667L2524.65 963.135L2518.41 968.694L2512.26 974.343L2506.18 980.081L2500.17 985.907L2494.23 991.818L2488.37 997.814L2482.58 1003.89L2476.85 1010.05L2471.19 1016.29L2465.6 1022.61L2460.07 1029L2454.6 1035.46L2449.2 1042L2443.85 1048.61L2438.56 1055.28L2433.32 1062.02L2428.14 1068.82L2423.01 1075.68L2417.92 1082.6L2412.89 1089.57L2407.9 1096.6L2402.95 1103.68L2398.04 1110.81L2393.17 1117.98L2388.34 1125.19L2383.54 1132.44L2378.77 1139.73L2374.03 1147.06L2369.31 1154.42L2364.62 1161.8L2359.96 1169.21L2355.31 1176.64L2350.68 1184.1L2346.06 1191.57L2341.45 1199.05L2336.86 1206.55L2332.27 1214.05L2327.68 1221.56L2323.1 1229.07L2318.52 1236.58L2313.93 1244.09L2309.34 1251.59L2304.74 1259.08L2300.13 1266.55L2295.5 1274.02L2290.86 1281.46L2286.2 1288.88L2281.52 1296.28L2276.82 1303.64L2272.09 1310.98L2267.34 1318.29L2262.55 1325.56L2257.73 1332.79L2252.88 1339.98L2247.99 1347.13L2243.06 1354.23L2238.08 1361.28L2233.07 1368.28L2228.01 1375.22L2222.89 1382.11L2217.73 1388.93L2212.52 1395.7L2207.26 1402.4L2201.93 1409.04L2196.55 1415.61L2191.11 1422.1L2185.61 1428.53L2180.05 1434.88L2174.42 1441.15L2168.72 1447.34L2162.96 1453.46L2157.13 1459.49L2151.22 1465.44L2145.25 1471.3L2139.2 1477.08L2133.08 1482.77L2126.88 1488.37L2120.6 1493.87L2114.25 1499.29L2107.81 1504.61L2101.3 1509.84L2094.71 1514.98L2088.04 1520.02L2081.28 1524.96L2074.45 1529.8L2067.53 1534.55L2060.53 1539.2L2053.44 1543.75L2046.27 1548.2L2039.02 1552.55L2031.68 1556.8L2024.26 1560.95L2016.75 1565L2009.16 1568.96L2001.49 1572.81L1993.73 1576.57L1985.89 1580.22L1977.96 1583.78L1969.96 1587.24L1961.87 1590.61L1953.7 1593.88L1945.45 1597.05L1937.13 1600.13L1928.72 1603.12L1920.23 1606.01L1911.67 1608.81L1903.03 1611.53L1894.32 1614.15L1885.53 1616.69L1876.68 1619.14L1867.75 1621.51L1858.75 1623.8L1849.68 1626.01L1840.55 1628.13L1831.35 1630.18L1822.09 1632.16L1812.76 1634.06L1803.38 1635.89L1793.94 1637.66L1784.44 1639.35L1774.89 1640.98L1765.28 1642.55L1755.63 1644.06L1745.93 1645.52L1736.18 1646.91L1726.38 1648.26L1716.55 1649.56L1706.67 1650.8L1696.76 1652.01L1686.81 1653.17L1676.83 1654.3L1666.81 1655.38L1656.77 1656.44L1646.71 1657.46L1636.62 1658.46L1626.5 1659.43L1616.37 1660.37L1606.23 1661.3L1596.07 1662.22L1585.9 1663.12L1575.72 1664.01L1565.53 1664.89L1555.34 1665.77L1545.15 1666.64L1534.96 1667.52L1524.78 1668.41L1514.6 1669.3L1504.43 1670.2L1494.27 1671.11L1484.13 1672.04L1474 1672.99L1463.89 1673.97L1453.8 1674.97L1443.74 1675.99L1433.7 1677.05L1423.69 1678.14L1413.72 1679.27L1403.77 1680.44L1393.86 1681.65L1383.99 1682.9L1374.16 1684.2L1364.37 1685.56L1354.63 1686.96L1344.93 1688.42L1335.28 1689.94L1325.68 1691.51L1316.14 1693.15L1306.64 1694.86L1297.21 1696.63L1287.83 1698.47L1278.52 1700.38L1269.26 1702.36L1260.07 1704.42L1250.95 1706.56L1241.89 1708.78L1232.9 1711.07L1223.98 1713.45L1215.13 1715.92L1206.35 1718.46L1197.65 1721.1L1189.02 1723.82L1180.46 1726.64L1171.99 1729.54L1163.59 1732.54L1155.27 1735.63L1147.03 1738.82L1138.87 1742.1L1130.8 1745.47L1122.8 1748.95L1114.89 1752.52L1107.06 1756.19L1099.31 1759.95L1091.65 1763.82L1084.07 1767.79L1076.57 1771.85L1069.16 1776.01L1061.83 1780.28L1054.59 1784.64L1047.43 1789.1L1040.35 1793.66L1033.36 1798.32L1026.45 1803.08L1019.62 1807.94L1012.88 1812.89L1006.22 1817.94L999.633 1823.09L993.131 1828.33L986.709 1833.66L980.365 1839.09L974.099 1844.61L967.909 1850.22L961.795 1855.92L955.755 1861.71L949.788 1867.58L943.893 1873.54L938.069 1879.58L932.314 1885.71L926.627 1891.91L921.005 1898.19L915.448 1904.55L909.954 1910.98L904.522 1917.49L899.148 1924.06L893.833 1930.71L888.573 1937.42L883.367 1944.19L878.213 1951.03L873.109 1957.92L868.052 1964.87L863.042 1971.88L858.074 1978.93L853.149 1986.04L848.262 1993.19L843.413 2000.39L838.598 2007.62L833.815 2014.9L829.063 2022.21L824.338 2029.55L819.638 2036.92L814.961 2044.32L810.305 2051.75L805.666 2059.19L801.043 2066.65L796.433 2074.13L791.833 2081.62L787.242 2089.12L782.656 2096.63L778.072 2104.14L773.489 2111.65L768.904 2119.16L764.315 2126.66L759.718 2134.16L755.111 2141.64L750.493 2149.11L745.859 2156.56L741.209 2163.99L736.539 2171.4L731.847 2178.78L727.13 2186.13L722.387 2193.45L717.614 2200.74L712.809 2207.99L707.971 2215.2L703.096 2222.36L698.184 2229.48L693.23 2236.56L688.233 2243.58L683.192 2250.55L678.103 2257.46L672.965 2264.31L667.776 2271.11L662.533 2277.84L657.235 2284.5L651.881 2291.1L646.467 2297.63L640.993 2304.08L635.456 2310.47L629.856 2316.77L624.19 2323L618.456 2329.15L612.654 2335.22L606.782 2341.21L600.838 2347.11L594.822 2352.92L588.731 2358.65L582.566 2364.29L576.324 2369.84L570.005 2375.29L563.608 2380.66L557.131 2385.93L550.575 2391.1L543.937 2396.18L537.219 2401.17L530.418 2406.06L523.535 2410.85L516.569 2415.54L509.52 2420.13L502.387 2424.62L495.17 2429.02L487.869 2433.31L480.484 2437.51L473.015 2441.61L465.462 2445.6L457.825 2449.5L450.104 2453.3L442.3 2457L434.413 2460.6L426.444 2464.11L418.392 2467.51L410.259 2470.82L402.046 2474.04L393.752 2477.16L385.379 2480.19L376.928 2483.12L368.4 2485.96L359.795 2488.72L351.115 2491.38L342.361 2493.96L333.534 2496.45L324.636 2498.85L315.668 2501.18L306.631 2503.42L297.526 2505.58L288.356 2507.66L279.122 2509.67L269.825 2511.6L260.468 2513.47L251.052 2515.26L241.578 2516.99L232.05 2518.64L222.468 2520.24L212.835 2521.78L203.152 2523.26L193.422 2524.68L183.647 2526.05L173.83 2527.36L163.971 2528.63L154.073 2529.86L144.14 2531.04L134.173 2532.18L124.173 2533.28L114.144 2534.35L104.089 2535.38L94.0089 2536.39L83.9065 2537.37L73.7848 2538.33L63.6452 2539.27L53.4911 2540.19L43.3251 2541.09L33.149 2541.99L22.9657 2542.87L12.7779 2543.75L2.58729 2544.63L-7.60237 2545.51L-17.7895 2546.39L-27.9714 2547.27L-38.1453 2548.17L-48.3089 2549.08L-58.4593 2550L-68.5946 2550.95L-78.7122 2551.91L-88.8094 2552.9L-98.8839 2553.91L-108.933 2554.95L-118.955 2556.03L-128.947 2557.14L-138.906 2558.29L-148.831 2559.48L-158.719 2560.72L-168.568 2562L-178.376 2563.33L-188.14 2564.71L-197.859 2566.14L-207.53 2567.63L-217.15 2569.19L-226.72 2570.8L-236.235 2572.47L-245.695 2574.21L-255.097 2576.02L-264.44 2577.9L-273.722 2579.85L-282.94 2581.88L-292.095 2583.98L-301.183 2586.16L-310.203 2588.42L-319.155 2590.77L-328.036 2593.19L-336.845 2595.7L-345.582 2598.3L-354.244 2600.99L-362.83 2603.76L-371.34 2606.63L-379.772 2609.58L-388.126 2612.63L-396.4 2615.78L-404.594 2619.01L-412.707 2622.35L-420.739 2625.78L-428.689 2629.31L-436.556 2632.93L-444.34 2636.66L-452.04 2640.48L-459.657 2644.4L-467.19 2648.42L-474.638 2652.54L-482.003 2656.76L-489.284 2661.08L-496.48 2665.5L-503.593 2670.02L-510.622 2674.64L-517.567 2679.35L-524.43 2684.16" stroke="white" stroke-width="2"/>
<path d="M3089.8 182.46L3082.85 184.619L3075.91 186.779L3068.96 188.941L3062.02 191.106L3055.09 193.276L3048.16 195.451L3041.23 197.633L3034.31 199.822L3027.4 202.019L3020.49 204.227L3013.59 206.445L3006.71 208.675L2999.83 210.917L2992.97 213.173L2986.12 215.444L2979.28 217.731L2972.46 220.034L2965.65 222.356L2958.86 224.695L2952.08 227.055L2945.32 229.434L2938.58 231.835L2931.86 234.258L2925.15 236.705L2918.47 239.175L2911.81 241.67L2905.17 244.19L2898.55 246.736L2891.95 249.309L2885.38 251.91L2878.83 254.54L2872.31 257.198L2865.81 259.886L2859.34 262.604L2852.89 265.354L2846.47 268.134L2840.08 270.946L2833.71 273.791L2827.37 276.669L2821.06 279.58L2814.78 282.525L2808.53 285.503L2802.31 288.517L2796.11 291.565L2789.95 294.648L2783.81 297.766L2777.71 300.92L2771.63 304.11L2765.59 307.335L2759.57 310.597L2753.59 313.894L2747.64 317.228L2741.72 320.598L2735.82 324.004L2729.96 327.447L2724.13 330.925L2718.33 334.439L2712.56 337.989L2706.82 341.575L2701.11 345.197L2695.43 348.853L2689.78 352.545L2684.16 356.271L2678.57 360.031L2673.01 363.826L2667.47 367.654L2661.96 371.515L2656.49 375.41L2651.03 379.336L2645.61 383.294L2640.21 387.283L2634.84 391.304L2629.49 395.354L2624.17 399.433L2618.87 403.542L2613.6 407.678L2608.34 411.842L2603.12 416.033L2597.91 420.25L2592.73 424.492L2587.56 428.758L2582.42 433.049L2577.29 437.361L2572.18 441.696L2567.1 446.052L2562.02 450.428L2556.97 454.824L2551.93 459.237L2546.9 463.668L2541.89 468.116L2536.89 472.579L2531.91 477.056L2526.93 481.547L2521.97 486.051L2517.01 490.566L2512.07 495.091L2507.13 499.626L2502.2 504.169L2497.28 508.719L2492.36 513.275L2487.44 517.836L2482.53 522.402L2477.62 526.97L2472.71 531.541L2467.81 536.112L2462.9 540.683L2457.99 545.252L2453.08 549.819L2448.17 554.382L2443.25 558.941L2438.33 563.494L2433.4 568.04L2428.46 572.579L2423.52 577.108L2418.57 581.628L2413.61 586.136L2408.64 590.633L2403.66 595.116L2398.67 599.586L2393.66 604.04L2388.64 608.479L2383.61 612.9L2378.56 617.304L2373.5 621.688L2368.42 626.053L2363.32 630.397L2358.2 634.72L2353.07 639.02L2347.91 643.297L2342.73 647.55L2337.54 651.778L2332.32 655.98L2327.08 660.156L2321.81 664.305L2316.53 668.426L2311.21 672.518L2305.88 676.581L2300.52 680.615L2295.13 684.618L2289.72 688.59L2284.28 692.53L2278.81 696.438L2273.31 700.314L2267.79 704.157L2262.24 707.966L2256.66 711.742L2251.05 715.483L2245.42 719.19L2239.75 722.862L2234.05 726.499L2228.33 730.1L2222.57 733.666L2216.78 737.196L2210.97 740.69L2205.12 744.149L2199.24 747.571L2193.33 750.956L2187.39 754.306L2181.42 757.62L2175.42 760.897L2169.39 764.138L2163.33 767.344L2157.24 770.513L2151.12 773.647L2144.96 776.746L2138.78 779.809L2132.57 782.838L2126.33 785.832L2120.06 788.792L2113.77 791.717L2107.44 794.61L2101.09 797.469L2094.7 800.295L2088.3 803.09L2081.86 805.853L2075.4 808.584L2068.91 811.285L2062.4 813.957L2055.86 816.599L2049.3 819.212L2042.71 821.798L2036.11 824.356L2029.48 826.887L2022.82 829.393L2016.15 831.874L2009.45 834.331L2002.74 836.764L1996.01 839.175L1989.26 841.564L1982.49 843.932L1975.7 846.28L1968.9 848.609L1962.08 850.92L1955.25 853.214L1948.41 855.492L1941.55 857.755L1934.68 860.003L1927.8 862.238L1920.9 864.461L1914 866.673L1907.09 868.875L1900.18 871.068L1893.25 873.252L1886.32 875.43L1879.39 877.602L1872.45 879.769L1865.51 881.932L1858.56 884.093L1851.62 886.252L1844.67 888.411L1837.73 890.57L1830.78 892.731L1823.84 894.895L1816.9 897.063L1809.97 899.235L1803.04 901.414L1796.11 903.599L1789.2 905.793L1782.29 907.996L1775.39 910.209L1768.5 912.434L1761.62 914.671L1754.75 916.921L1747.89 919.185L1741.05 921.465L1734.22 923.761L1727.4 926.074L1720.6 928.405L1713.82 930.756L1707.05 933.127L1700.3 935.518L1693.57 937.931L1686.86 940.367L1680.17 942.827L1673.5 945.311L1666.85 947.82L1660.22 950.354L1653.61 952.916L1647.03 955.505L1640.47 958.121L1633.94 960.767L1627.43 963.442L1620.95 966.147L1614.49 968.882L1608.05 971.649L1601.65 974.447L1595.27 977.278L1588.92 980.141L1582.6 983.037L1576.3 985.967L1570.04 988.931L1563.8 991.929L1557.59 994.962L1551.42 998.029L1545.27 1001.13L1539.15 1004.27L1533.06 1007.44L1527.01 1010.65L1520.98 1013.9L1514.98 1017.18L1509.02 1020.5L1503.08 1023.85L1497.17 1027.24L1491.3 1030.67L1485.46 1034.13L1479.64 1037.63L1473.86 1041.17L1468.11 1044.74L1462.38 1048.34L1456.69 1051.98L1451.03 1055.66L1445.39 1059.37L1439.79 1063.12L1434.21 1066.89L1428.67 1070.71L1423.15 1074.56L1417.65 1078.43L1412.19 1082.35L1406.75 1086.29L1401.34 1090.27L1395.96 1094.27L1390.6 1098.31L1385.27 1102.38L1379.96 1106.47L1374.68 1110.6L1369.41 1114.75L1364.18 1118.93L1358.96 1123.13L1353.77 1127.37L1348.59 1131.62L1343.44 1135.9L1338.31 1140.2L1333.19 1144.53L1328.09 1148.88L1323.02 1153.24L1317.95 1157.63L1312.91 1162.04L1307.87 1166.46L1302.86 1170.9L1297.85 1175.36L1292.86 1179.83L1287.88 1184.31L1282.91 1188.81L1277.96 1193.32L1273.01 1197.84L1268.07 1202.37L1263.13 1206.91L1258.2 1211.46L1253.28 1216.01L1248.37 1220.57L1243.45 1225.14L1238.54 1229.7L1233.63 1234.27L1228.73 1238.84L1223.82 1243.41L1218.91 1247.98L1214 1252.55L1209.09 1257.12L1204.18 1261.68L1199.26 1266.23L1194.33 1270.78L1189.4 1275.33L1184.46 1279.86L1179.51 1284.38L1174.56 1288.9L1169.59 1293.4L1164.62 1297.89L1159.63 1302.36L1154.63 1306.83L1149.62 1311.27L1144.59 1315.7L1139.55 1320.11L1134.49 1324.5L1129.42 1328.88L1124.33 1333.23L1119.22 1337.56L1114.09 1341.87L1108.94 1346.16L1103.78 1350.42L1098.59 1354.66L1093.38 1358.88L1088.15 1363.07L1082.89 1367.23L1077.62 1371.36L1072.32 1375.46L1066.99 1379.54L1061.64 1383.59L1056.27 1387.6L1050.86 1391.59L1045.44 1395.54L1039.98 1399.47L1034.5 1403.36L1028.99 1407.21L1023.45 1411.04L1017.88 1414.83L1012.29 1418.58L1006.66 1422.31L1001.01 1425.99L995.325 1429.65L989.612 1433.26L983.868 1436.84L978.095 1440.39L972.291 1443.9L966.457 1447.37L960.592 1450.81L954.697 1454.21L948.771 1457.58L942.815 1460.91L936.827 1464.2L930.81 1467.46L924.762 1470.68L918.684 1473.87L912.575 1477.02L906.437 1480.13L900.269 1483.21L894.071 1486.25L887.844 1489.26L881.587 1492.24L875.302 1495.18L868.989 1498.08L862.647 1500.96L856.278 1503.8L849.881 1506.61L843.457 1509.38L837.007 1512.13L830.531 1514.84L824.029 1517.53L817.503 1520.18L810.951 1522.81L804.376 1525.41L797.778 1527.98L791.157 1530.52L784.514 1533.04L777.85 1535.53L771.164 1537.99L764.459 1540.44L757.734 1542.86L750.991 1545.26L744.229 1547.63L737.451 1549.99L730.656 1552.33L723.845 1554.65L717.02 1556.95L710.18 1559.23L703.328 1561.5L696.463 1563.76L689.586 1566L682.699 1568.23L675.802 1570.44L668.896 1572.65L661.982 1574.85L655.061 1577.03L648.133 1579.21L641.201 1581.39L634.264 1583.56L627.323 1585.72L620.379 1587.88L613.434 1590.04L606.488 1592.2L599.542 1594.36L592.597 1596.52L585.654 1598.68L578.714 1600.85L571.778 1603.02L564.847 1605.2L557.921 1607.38L551.001 1609.57L544.089 1611.77L537.185 1613.98L530.29 1616.2L523.406 1618.43L516.532 1620.67L509.67 1622.93L502.82 1625.2L495.984 1627.49L489.162 1629.8L482.355 1632.12L475.564 1634.46L468.79 1636.82L462.033 1639.21L455.294 1641.61L448.574 1644.03L441.873 1646.48L435.193 1648.96L428.534 1651.45L421.896 1653.98L415.28 1656.53L408.687 1659.1L402.118 1661.71L395.573 1664.34L389.052 1667L382.557 1669.69L376.087 1672.42L369.643 1675.17L363.226 1677.95L356.835 1680.77L350.473 1683.62L344.138 1686.5L337.831 1689.42L331.553 1692.36L325.304 1695.35L319.084 1698.37L312.893 1701.42L306.732 1704.5L300.601 1707.63L294.5 1710.79L288.428 1713.98L282.388 1717.21L276.378 1720.48L270.398 1723.78L264.449 1727.12L258.531 1730.49L252.643 1733.9L246.786 1737.35L240.959 1740.83L235.162 1744.35L229.396 1747.9L223.66 1751.49L217.954 1755.12L212.277 1758.78L206.631 1762.48L201.013 1766.21L195.424 1769.97L189.865 1773.77L184.333 1777.6L178.83 1781.47L173.354 1785.36L167.905 1789.29L162.484 1793.26L157.088 1797.25L151.719 1801.27L146.374 1805.33L141.055 1809.41L135.76 1813.52L130.489 1817.66L125.24 1821.83L120.015 1826.02L114.811 1830.24L109.629 1834.49L104.467 1838.76L99.3246 1843.05L94.2017 1847.37L89.0971 1851.7L84.0107 1856.06L78.941 1860.44L73.8872 1864.84L68.8493 1869.25L63.8258 1873.69L58.8159 1878.14L53.8194 1882.6L48.8348 1887.08L43.8613 1891.57L38.8986 1896.08L33.9453 1900.59L29.0004 1905.12L24.0638 1909.66L19.1339 1914.2L14.2098 1918.75L9.29102 1923.31L4.37666 1927.87L-0.534847 1932.44L-5.44375 1937L-10.351 1941.58L-15.2581 1946.15L-20.1653 1950.72L-25.0736 1955.29L-29.9846 1959.85L-34.8985 1964.42L-39.8161 1968.97L-44.7392 1973.53L-49.6678 1978.07L-54.603 1982.61L-59.5462 1987.14L-64.4978 1991.66L-69.4587 1996.16L-74.4299 2000.66L-79.4122 2005.14L-84.4064 2009.61L-89.4135 2014.06L-94.4342 2018.5L-99.4694 2022.92L-104.52 2027.32L-109.586 2031.7L-114.669 2036.06L-119.771 2040.4L-124.889 2044.72L-130.028 2049.02L-135.186 2053.29L-140.364 2057.54L-145.564 2061.77L-150.785 2065.97L-156.028 2070.14L-161.295 2074.29L-166.586 2078.4L-171.9 2082.49L-177.239 2086.55L-182.604 2090.58L-187.994 2094.58L-193.411 2098.55L-198.854 2102.49L-204.324 2106.39L-209.822 2110.26L-215.348 2114.1L-220.902 2117.91L-226.485 2121.68L-232.097 2125.42L-237.738 2129.12L-243.408 2132.79L-249.109 2136.42L-254.839 2140.02L-260.599 2143.58L-266.39 2147.1L-272.21 2150.59L-278.062 2154.05L-283.944 2157.46L-289.856 2160.85L-295.799 2164.19L-301.773 2167.5L-307.777 2170.77L-313.811 2174.01L-319.876 2177.21L-325.971 2180.38L-332.097 2183.51L-338.252 2186.6L-344.437 2189.66L-350.651 2192.68L-356.895 2195.67L-363.167 2198.63L-369.468 2201.55L-375.798 2204.44L-382.155 2207.29L-388.54 2210.12L-394.952 2212.91L-401.39 2215.67L-407.855 2218.39L-414.346 2221.09L-420.861 2223.76L-427.401 2226.4L-433.966 2229.01L-440.554 2231.59L-447.165 2234.14L-453.799 2236.67L-460.454 2239.18L-467.13 2241.65L-473.827 2244.11L-480.543 2246.54L-487.278 2248.95L-494.032 2251.33L-500.803 2253.7L-507.591 2256.04L-514.395 2258.37L-521.214 2260.68L-528.047 2262.97L-534.894 2265.25L-541.754 2267.51L-548.625 2269.76L-555.508 2271.99L-562.401 2274.21L-569.303 2276.42L-576.214 2278.62L-583.132 2280.81L-590.056 2283L-596.987 2285.17L-603.922 2287.35L-610.862 2289.51L-617.804 2291.68L-624.749 2293.84L-631.694 2296" stroke="white" stroke-width="2"/>
<path d="M2737.79 -233.985L2726.43 -237.477L2715.07 -240.962L2703.72 -244.436L2692.38 -247.891L2681.07 -251.322L2669.78 -254.724L2658.52 -258.089L2647.3 -261.412L2636.12 -264.687L2624.98 -267.908L2613.89 -271.07L2602.86 -274.166L2591.89 -277.191L2580.99 -280.14L2570.15 -283.007L2559.39 -285.786L2548.7 -288.471L2538.1 -291.059L2527.59 -293.542L2517.17 -295.917L2506.84 -298.178L2496.62 -300.321L2486.5 -302.339L2476.49 -304.23L2466.59 -305.987L2456.8 -307.607L2447.14 -309.085L2437.6 -310.417L2428.19 -311.599L2418.91 -312.627L2409.76 -313.497L2400.74 -314.206L2391.87 -314.749L2383.14 -315.124L2374.55 -315.327L2366.12 -315.355L2357.83 -315.205L2349.7 -314.875L2341.72 -314.361L2333.89 -313.662L2326.23 -312.775L2318.73 -311.698L2311.38 -310.429L2304.21 -308.967L2297.19 -307.309L2290.35 -305.454L2283.67 -303.402L2277.16 -301.15L2270.82 -298.698L2264.65 -296.046L2258.64 -293.193L2252.81 -290.139L2247.15 -286.882L2241.66 -283.425L2236.34 -279.765L2231.19 -275.905L2226.21 -271.845L2221.39 -267.585L2216.75 -263.126L2212.27 -258.469L2207.96 -253.617L2203.81 -248.569L2199.83 -243.328L2196.01 -237.896L2192.34 -232.274L2188.84 -226.465L2185.49 -220.471L2182.3 -214.294L2179.26 -207.938L2176.37 -201.405L2173.62 -194.697L2171.02 -187.819L2168.57 -180.773L2166.25 -173.563L2164.06 -166.193L2162.01 -158.665L2160.09 -150.985L2158.29 -143.156L2156.62 -135.181L2155.07 -127.066L2153.63 -118.815L2152.3 -110.433L2151.08 -101.923L2149.96 -93.2912L2148.94 -84.5418L2148.02 -75.6801L2147.19 -66.7109L2146.44 -57.6396L2145.78 -48.4713L2145.19 -39.2115L2144.68 -29.8654L2144.23 -20.4388L2143.85 -10.937L2143.52 -1.36586L2143.26 8.26904L2143.03 17.9619L2142.86 27.7069L2142.72 37.4982L2142.62 47.3298L2142.54 57.1959L2142.49 67.0904L2142.46 77.0073L2142.44 86.9407L2142.44 96.8845L2142.43 106.833L2142.42 116.779L2142.41 126.718L2142.39 136.643L2142.35 146.548L2142.28 156.427L2142.19 166.275L2142.07 176.084L2141.91 185.85L2141.71 195.567L2141.46 205.228L2141.16 214.828L2140.81 224.361L2140.39 233.821L2139.91 243.203L2139.35 252.502L2138.72 261.711L2138.01 270.826L2137.22 279.84L2136.34 288.75L2135.36 297.549L2134.29 306.233L2133.11 314.797L2131.83 323.236L2130.44 331.546L2128.94 339.721L2127.32 347.758L2125.58 355.651L2123.71 363.398L2121.72 370.993L2119.59 378.433L2117.33 385.714L2114.94 392.832L2112.4 399.785L2109.72 406.567L2106.89 413.178L2103.92 419.612L2100.79 425.868L2097.51 431.942L2094.08 437.833L2090.49 443.537L2086.73 449.053L2082.82 454.378L2078.75 459.511L2074.51 464.45L2070.1 469.193L2065.53 473.739L2060.79 478.086L2055.89 482.235L2050.81 486.183L2045.56 489.931L2040.15 493.477L2034.56 496.822L2028.8 499.965L2022.88 502.906L2016.78 505.647L2010.51 508.186L2004.08 510.526L1997.47 512.666L1990.7 514.607L1983.76 516.352L1976.65 517.9L1969.38 519.254L1961.95 520.415L1954.36 521.385L1946.61 522.167L1938.69 522.761L1930.63 523.172L1922.41 523.401L1914.04 523.45L1905.51 523.324L1896.85 523.024L1888.04 522.555L1879.09 521.918L1870 521.119L1860.77 520.16L1851.42 519.045L1841.93 517.778L1832.32 516.364L1822.59 514.805L1812.74 513.108L1802.78 511.275L1792.71 509.313L1782.53 507.224L1772.25 505.015L1761.87 502.689L1751.39 500.253L1740.83 497.71L1730.18 495.067L1719.45 492.328L1708.65 489.5L1697.77 486.587L1686.83 483.594L1675.82 480.528L1664.76 477.395L1653.65 474.199L1642.48 470.947L1631.28 467.644L1620.04 464.297L1608.76 460.911L1597.46 457.492L1586.13 454.046L1574.79 450.58L1563.43 447.099L1552.07 443.609L1540.7 440.117L1529.34 436.628L1517.98 433.148L1506.64 429.684L1495.32 426.242L1484.02 422.827L1472.75 419.445L1461.51 416.103L1450.31 412.806L1439.15 409.56L1428.04 406.372L1416.98 403.246L1405.99 400.189L1395.05 397.205L1384.18 394.302L1373.39 391.484L1362.67 388.757L1352.03 386.125L1341.48 383.596L1331.02 381.172L1320.65 378.861L1310.38 376.665L1300.21 374.592L1290.15 372.645L1280.2 370.828L1270.37 369.147L1260.65 367.606L1251.06 366.209L1241.59 364.961L1232.25 363.865L1223.04 362.925L1213.97 362.145L1205.03 361.528L1196.24 361.079L1187.59 360.8L1179.09 360.695L1170.73 360.766L1162.53 361.017L1154.48 361.45L1146.59 362.067L1138.86 362.871L1131.28 363.864L1123.87 365.048L1116.62 366.426L1109.54 367.998L1102.62 369.766L1095.86 371.731L1089.28 373.895L1082.86 376.259L1076.62 378.823L1070.54 381.587L1064.63 384.554L1058.9 387.721L1053.33 391.09L1047.94 394.661L1042.71 398.433L1037.65 402.405L1032.77 406.578L1028.05 410.949L1023.5 415.519L1019.11 420.286L1014.89 425.248L1010.84 430.404L1006.95 435.753L1003.21 441.292L999.641 447.018L996.226 452.931L992.965 459.028L989.858 465.306L986.901 471.762L984.092 478.393L981.429 485.196L978.909 492.169L976.529 499.307L974.286 506.607L972.177 514.067L970.199 521.68L968.349 529.445L966.622 537.356L965.015 545.409L963.526 553.601L962.149 561.926L960.882 570.381L959.72 578.96L958.658 587.658L957.694 596.471L956.822 605.394L956.039 614.421L955.339 623.547L954.719 632.767L954.173 642.076L953.698 651.468L953.289 660.937L952.94 670.479L952.647 680.086L952.406 689.754L952.21 699.477L952.056 709.249L951.939 719.064L951.852 728.915L951.792 738.798L951.753 748.706L951.73 758.633L951.718 768.573L951.712 778.52L951.707 788.468L951.698 798.41L951.679 808.342L951.646 818.257L951.593 828.148L951.516 838.01L951.408 847.837L951.266 857.623L951.085 867.362L950.858 877.048L950.582 886.676L950.252 896.239L949.862 905.732L949.408 915.149L948.886 924.485L948.29 933.734L947.616 942.891L946.86 951.95L946.017 960.907L945.083 969.755L944.053 978.491L942.923 987.108L941.689 995.603L940.348 1003.97L938.895 1012.2L937.326 1020.3L935.638 1028.26L933.827 1036.07L931.89 1043.73L929.823 1051.24L927.623 1058.59L925.287 1065.78L922.812 1072.81L920.195 1079.67L917.433 1086.35L914.524 1092.87L911.465 1099.2L908.253 1105.35L904.887 1111.33L901.364 1117.11L897.683 1122.71L893.842 1128.12L889.838 1133.34L885.671 1138.36L881.34 1143.19L876.842 1147.82L872.176 1152.26L867.344 1156.5L862.342 1160.53L857.17 1164.37L851.829 1168L846.317 1171.44L840.635 1174.67L834.783 1177.7L828.76 1180.53L822.567 1183.15L816.205 1185.58L809.674 1187.81L802.975 1189.84L796.109 1191.67L789.077 1193.3L781.879 1194.74L774.519 1195.99L766.996 1197.04L759.312 1197.91L751.47 1198.58L743.472 1199.07L735.319 1199.38L727.013 1199.51L718.558 1199.46L709.955 1199.24L701.207 1198.84L692.317 1198.28L683.288 1197.55L674.122 1196.66L664.823 1195.61L655.395 1194.41L645.84 1193.06L636.162 1191.57L626.365 1189.93L616.452 1188.16L606.427 1186.25L596.294 1184.22L586.057 1182.06L575.72 1179.78L565.288 1177.4L554.764 1174.9L544.153 1172.3L533.459 1169.6L522.687 1166.81L511.842 1163.94L500.928 1160.98L489.949 1157.94L478.911 1154.84L467.819 1151.67L456.676 1148.44L445.489 1145.16L434.262 1141.83L423 1138.46L411.708 1135.06L400.391 1131.62L389.054 1128.17L377.703 1124.69L366.342 1121.2L354.977 1117.71L343.612 1114.22L332.253 1110.74L320.905 1107.26L309.572 1103.81L298.261 1100.38L286.976 1096.99L275.722 1093.63L264.504 1090.31L253.327 1087.04L242.196 1083.83L231.117 1080.67L220.092 1077.58L209.129 1074.57L198.231 1071.63L187.403 1068.77L176.65 1066L165.976 1063.33L155.385 1060.75L144.883 1058.28L134.473 1055.92L124.16 1053.68L113.948 1051.55L103.841 1049.54L93.8427 1047.67L83.9573 1045.93L74.1887 1044.33L64.5401 1042.86L55.0154 1041.55L45.6183 1040.39L36.3514 1039.38L27.2186 1038.53L18.223 1037.84L9.36688 1037.32L0.653816 1036.96L-7.91351 1036.78L-16.3332 1036.77L-24.602 1036.94L-32.7178 1037.3L-40.6788 1037.83L-48.4825 1038.55L-56.1272 1039.46L-63.611 1040.56L-70.9324 1041.86L-78.0899 1043.34L-85.0821 1045.02L-91.908 1046.9L-98.5664 1048.98L-105.057 1051.25L-111.378 1053.73L-117.529 1056.41L-123.511 1059.28L-129.322 1062.36L-134.963 1065.64L-140.433 1069.13L-145.733 1072.81L-150.864 1076.69L-155.825 1080.78L-160.617 1085.06L-165.242 1089.55L-169.699 1094.23L-173.991 1099.1L-178.118 1104.17L-182.083 1109.44L-185.885 1114.89L-189.528 1120.54L-193.012 1126.37L-196.341 1132.39L-199.515 1138.58L-202.538 1144.96L-205.411 1151.52L-208.138 1158.24L-210.72 1165.14L-213.162 1172.21L-215.464 1179.44L-217.632 1186.83L-219.667 1194.37L-221.573 1202.07L-223.354 1209.92L-225.013 1217.91L-226.553 1226.04L-227.979 1234.31L-229.294 1242.71L-230.502 1251.23L-231.608 1259.88L-232.614 1268.64L-233.526 1277.52L-234.348 1286.5L-235.083 1295.58L-235.738 1304.76L-236.316 1314.03L-236.821 1323.39L-237.259 1332.83L-237.634 1342.34L-237.95 1351.92L-238.214 1361.56L-238.429 1371.26L-238.6 1381.01L-238.734 1390.8L-238.833 1400.64L-238.904 1410.51L-238.952 1420.41L-238.981 1430.33L-238.997 1440.26L-239.005 1450.21L-239.01 1460.16L-239.017 1470.1L-239.031 1480.04L-239.057 1489.96L-239.101 1499.86L-239.167 1509.74L-239.26 1519.58L-239.387 1529.39L-239.55 1539.15L-239.756 1548.86L-240.01 1558.51L-240.316 1568.1L-240.679 1577.63L-241.104 1587.08L-241.595 1596.45L-242.158 1605.74L-242.797 1614.94L-243.517 1624.04L-244.321 1633.04L-245.215 1641.94L-246.202 1650.72L-247.288 1659.39L-248.475 1667.94L-249.769 1676.37L-251.172 1684.66L-252.69 1692.82L-254.325 1700.84L-256.081 1708.72L-257.962 1716.44L-259.972 1724.02L-262.113 1731.44L-264.389 1738.7L-266.802 1745.8L-269.357 1752.73L-272.055 1759.5L-274.899 1766.08L-277.892 1772.5L-281.036 1778.73L-284.334 1784.78L-287.788 1790.65L-291.399 1796.33L-295.17 1801.83L-299.102 1807.13L-303.197 1812.24L-307.456 1817.15L-311.881 1821.87L-316.472 1826.39L-321.231 1830.72L-326.159 1834.84L-331.256 1838.77L-336.523 1842.49L-341.959 1846.01L-347.567 1849.33L-353.344 1852.45L-359.292 1855.37L-365.41 1858.08L-371.697 1860.6L-378.154 1862.91L-384.78 1865.03L-391.572 1866.95L-398.532 1868.67L-405.657 1870.19L-412.946 1871.52L-420.398 1872.66L-428.011 1873.61L-435.783 1874.37L-443.713 1874.94L-451.799 1875.33L-460.038 1875.53L-468.428 1875.56L-476.966 1875.42L-485.65 1875.1L-494.479 1874.61L-503.447 1873.95L-512.553 1873.13L-521.793 1872.15L-531.165 1871.02L-540.665 1869.73L-550.289 1868.3L-560.035 1866.73L-569.897 1865.01L-579.873 1863.16L-589.959 1861.19L-600.151 1859.08L-610.444 1856.86L-620.835 1854.52L-631.319 1852.07L-641.893 1849.51L-652.551 1846.86L-663.289 1844.11L-674.103 1841.27L-684.987 1838.35L-695.938 1835.35L-706.95 1832.27L-718.02 1829.13L-729.141 1825.93L-740.309 1822.67L-751.519 1819.36L-762.766 1816.01L-774.046 1812.62L-785.352 1809.2L-796.681 1805.75L-808.026 1802.28L-819.384 1798.8L-830.748 1795.31" stroke="white" stroke-width="2"/>
<path d="M3334.25 339.066L3323.78 339.911L3313.32 340.759L3302.85 341.613L3292.4 342.477L3281.96 343.352L3271.52 344.244L3261.11 345.154L3250.71 346.085L3240.34 347.041L3229.98 348.025L3219.66 349.039L3209.36 350.087L3199.09 351.171L3188.85 352.294L3178.66 353.459L3168.49 354.67L3158.37 355.928L3148.3 357.237L3138.26 358.599L3128.28 360.016L3118.34 361.492L3108.45 363.029L3098.62 364.63L3088.85 366.296L3079.13 368.03L3069.47 369.835L3059.87 371.712L3050.34 373.665L3040.87 375.694L3031.47 377.802L3022.13 379.992L3012.87 382.264L3003.68 384.621L2994.56 387.064L2985.51 389.596L2976.54 392.217L2967.65 394.929L2958.84 397.734L2950.11 400.633L2941.45 403.627L2932.88 406.717L2924.39 409.905L2915.98 413.191L2907.66 416.577L2899.42 420.063L2891.27 423.649L2883.2 427.337L2875.22 431.128L2867.33 435.02L2859.52 439.016L2851.8 443.115L2844.17 447.317L2836.62 451.622L2829.17 456.031L2821.8 460.543L2814.51 465.158L2807.32 469.876L2800.21 474.696L2793.18 479.618L2786.24 484.641L2779.39 489.766L2772.62 494.99L2765.94 500.313L2759.34 505.734L2752.82 511.253L2746.38 516.867L2740.02 522.577L2733.74 528.38L2727.54 534.275L2721.41 540.261L2715.36 546.336L2709.39 552.499L2703.49 558.747L2697.66 565.08L2691.89 571.496L2686.2 577.991L2680.57 584.566L2675.01 591.216L2669.51 597.941L2664.07 604.738L2658.69 611.605L2653.37 618.539L2648.1 625.539L2642.89 632.601L2637.72 639.723L2632.61 646.903L2627.54 654.138L2622.51 661.426L2617.53 668.763L2612.59 676.147L2607.68 683.576L2602.81 691.045L2597.97 698.554L2593.17 706.097L2588.39 713.674L2583.63 721.28L2578.9 728.913L2574.19 736.57L2569.49 744.247L2564.81 751.942L2560.14 759.652L2555.49 767.373L2550.84 775.103L2546.19 782.837L2541.54 790.575L2536.9 798.311L2532.25 806.043L2527.6 813.768L2522.93 821.483L2518.26 829.185L2513.57 836.871L2508.87 844.537L2504.14 852.181L2499.4 859.799L2494.63 867.389L2489.83 874.948L2485.01 882.472L2480.15 889.959L2475.26 897.406L2470.34 904.81L2465.37 912.168L2460.37 919.478L2455.32 926.736L2450.22 933.941L2445.08 941.089L2439.89 948.177L2434.65 955.205L2429.35 962.168L2423.99 969.065L2418.58 975.893L2413.11 982.65L2407.57 989.333L2401.97 995.941L2396.31 1002.47L2390.58 1008.92L2384.78 1015.29L2378.91 1021.58L2372.96 1027.78L2366.95 1033.89L2360.85 1039.92L2354.69 1045.85L2348.44 1051.7L2342.12 1057.45L2335.72 1063.1L2329.23 1068.66L2322.67 1074.13L2316.02 1079.5L2309.29 1084.76L2302.47 1089.93L2295.57 1095L2288.58 1099.97L2281.51 1104.83L2274.35 1109.59L2267.11 1114.25L2259.78 1118.81L2252.36 1123.27L2244.85 1127.62L2237.26 1131.86L2229.57 1136.01L2221.81 1140.05L2213.95 1143.99L2206.01 1147.82L2197.98 1151.55L2189.86 1155.19L2181.66 1158.72L2173.38 1162.15L2165.01 1165.48L2156.55 1168.71L2148.02 1171.84L2139.4 1174.88L2130.7 1177.82L2121.92 1180.66L2113.07 1183.42L2104.13 1186.08L2095.12 1188.65L2086.03 1191.13L2076.87 1193.52L2067.64 1195.83L2058.34 1198.06L2048.96 1200.2L2039.52 1202.27L2030.02 1204.25L2020.45 1206.16L2010.82 1208L2001.12 1209.76L1991.37 1211.46L1981.57 1213.09L1971.7 1214.65L1961.79 1216.15L1951.83 1217.6L1941.81 1218.98L1931.75 1220.32L1921.65 1221.6L1911.51 1222.83L1901.32 1224.01L1891.11 1225.15L1880.85 1226.25L1870.57 1227.32L1860.25 1228.35L1849.91 1229.34L1839.54 1230.31L1829.15 1231.25L1818.75 1232.17L1808.32 1233.07L1797.88 1233.95L1787.43 1234.82L1776.97 1235.68L1766.51 1236.53L1756.04 1237.38L1745.57 1238.22L1735.1 1239.07L1724.64 1239.92L1714.18 1240.78L1703.73 1241.65L1693.29 1242.53L1682.87 1243.43L1672.46 1244.35L1662.08 1245.3L1651.71 1246.27L1641.38 1247.27L1631.06 1248.3L1620.78 1249.37L1610.53 1250.48L1600.32 1251.62L1590.14 1252.81L1580 1254.05L1569.9 1255.34L1559.85 1256.67L1549.84 1258.07L1539.88 1259.52L1529.98 1261.03L1520.12 1262.6L1510.32 1264.24L1500.58 1265.94L1490.89 1267.71L1481.27 1269.56L1471.7 1271.48L1462.21 1273.47L1452.78 1275.55L1443.41 1277.7L1434.12 1279.94L1424.89 1282.26L1415.74 1284.66L1406.66 1287.15L1397.66 1289.73L1388.74 1292.41L1379.89 1295.17L1371.12 1298.03L1362.43 1300.98L1353.82 1304.03L1345.3 1307.17L1336.85 1310.42L1328.49 1313.76L1320.22 1317.2L1312.03 1320.74L1303.92 1324.39L1295.9 1328.13L1287.97 1331.98L1280.13 1335.93L1272.37 1339.98L1264.7 1344.14L1257.11 1348.4L1249.62 1352.76L1242.21 1357.23L1234.89 1361.8L1227.65 1366.47L1220.5 1371.25L1213.44 1376.12L1206.47 1381.1L1199.58 1386.18L1192.77 1391.36L1186.05 1396.64L1179.41 1402.02L1172.86 1407.5L1166.38 1413.07L1159.99 1418.74L1153.67 1424.5L1147.44 1430.35L1141.28 1436.3L1135.2 1442.34L1129.19 1448.46L1123.26 1454.67L1117.39 1460.97L1111.6 1467.35L1105.88 1473.81L1100.22 1480.35L1094.63 1486.96L1089.1 1493.66L1083.64 1500.42L1078.23 1507.26L1072.89 1514.16L1067.59 1521.14L1062.36 1528.17L1057.17 1535.27L1052.03 1542.42L1046.94 1549.63L1041.9 1556.9L1036.9 1564.21L1031.94 1571.58L1027.02 1578.99L1022.13 1586.44L1017.28 1593.93L1012.46 1601.46L1007.67 1609.02L1002.9 1616.61L998.16 1624.24L993.44 1631.88L988.737 1639.55L984.051 1647.24L979.378 1654.94L974.717 1662.66L970.063 1670.39L965.415 1678.12L960.77 1685.85L956.126 1693.59L951.479 1701.33L946.828 1709.06L942.169 1716.78L937.5 1724.48L932.818 1732.18L928.121 1739.85L923.406 1747.51L918.672 1755.13L913.914 1762.74L909.13 1770.31L904.319 1777.85L899.477 1785.35L894.603 1792.82L889.693 1800.24L884.745 1807.62L879.758 1814.95L874.729 1822.23L869.654 1829.46L864.533 1836.64L859.363 1843.75L854.142 1850.8L848.867 1857.8L843.538 1864.72L838.151 1871.58L832.704 1878.37L827.197 1885.09L821.626 1891.73L815.991 1898.29L810.289 1904.78L804.519 1911.18L798.679 1917.51L792.768 1923.75L786.784 1929.9L780.726 1935.96L774.592 1941.94L768.381 1947.82L762.093 1953.61L755.725 1959.31L749.276 1964.91L742.747 1970.42L736.135 1975.83L729.44 1981.14L722.661 1986.35L715.798 1991.47L708.849 1996.48L701.815 2001.39L694.695 2006.19L687.488 2010.9L680.194 2015.5L672.813 2020L665.344 2024.4L657.789 2028.69L650.146 2032.88L642.415 2036.97L634.597 2040.95L626.693 2044.83L618.702 2048.61L610.625 2052.28L602.462 2055.86L594.213 2059.33L585.881 2062.71L577.464 2065.98L568.964 2069.16L560.382 2072.23L551.719 2075.22L542.975 2078.1L534.152 2080.9L525.251 2083.6L516.273 2086.21L507.22 2088.73L498.092 2091.16L488.891 2093.51L479.619 2095.77L470.276 2097.95L460.866 2100.05L451.389 2102.07L441.847 2104.01L432.242 2105.88L422.576 2107.68L412.851 2109.4L403.068 2111.06L393.23 2112.65L383.338 2114.18L373.395 2115.65L363.404 2117.06L353.364 2118.42L343.281 2119.72L333.156 2120.97L322.99 2122.18L312.786 2123.34L302.547 2124.46L292.275 2125.54L281.973 2126.58L271.642 2127.59L261.286 2128.57L250.907 2129.52L240.508 2130.45L230.091 2131.36L219.658 2132.25L209.213 2133.12L198.757 2133.98L188.294 2134.84L177.827 2135.68L167.356 2136.53L156.886 2137.38L146.419 2138.22L135.958 2139.08L125.504 2139.94L115.062 2140.82L104.633 2141.71L94.2198 2142.63L83.8251 2143.56L73.4511 2144.52L63.1016 2145.51L52.7777 2146.53L42.4823 2147.58L32.2184 2148.67L21.9877 2149.79L11.7928 2150.97L1.63663 2152.18L-8.47912 2153.45L-18.5522 2154.76L-28.5794 2156.13L-38.5596 2157.55L-48.4906 2159.04L-58.369 2160.58L-68.1941 2162.19L-77.9634 2163.86L-87.6747 2165.61L-97.326 2167.42L-106.916 2169.31L-116.442 2171.27L-125.903 2173.31L-135.297 2175.42L-144.623 2177.62L-153.877 2179.91L-163.061 2182.27L-172.171 2184.73L-181.206 2187.27L-190.166 2189.9L-199.049 2192.63L-207.852 2195.44L-216.577 2198.35L-225.221 2201.36L-233.783 2204.46L-242.262 2207.66L-250.659 2210.96L-258.971 2214.36L-267.199 2217.85L-275.341 2221.45L-283.398 2225.15L-291.368 2228.96L-299.251 2232.86L-307.048 2236.87L-314.757 2240.98L-322.379 2245.19L-329.913 2249.51L-337.361 2253.93L-344.721 2258.46L-351.993 2263.08L-359.18 2267.82L-366.279 2272.65L-373.292 2277.58L-380.221 2282.62L-387.063 2287.75L-393.821 2292.99L-400.496 2298.33L-407.088 2303.76L-413.598 2309.29L-420.027 2314.91L-426.376 2320.64L-432.645 2326.45L-438.837 2332.36L-444.953 2338.35L-450.993 2344.44" stroke="white" stroke-width="2"/>
</g>
<defs>
<clipPath id="clip0_109_1008">
<rect width="2360" height="2360" fill="white"/>
</clipPath>
</defs>
</svg>
